<?xml version="1.0" standalone="no"?>
<!DOCTYPE svg PUBLIC "-//W3C//DTD SVG 20010904//EN"
 "http://www.w3.org/TR/2001/REC-SVG-20010904/DTD/svg10.dtd">
<svg version="1.0" xmlns="http://www.w3.org/2000/svg"
 width="32.000000pt" height="32.000000pt" viewBox="0 0 32.000000 32.000000"
 preserveAspectRatio="xMidYMid meet">

<g transform="translate(0.000000,32.000000) scale(0.100000,-0.100000)"
fill="#000000" stroke="none">
<path d="M80 281 c-5 -11 -10 -30 -10 -42 0 -31 32 -129 42 -129 12 0 10 -48
-2 -55 -6 -3 -10 4 -10 17 -1 13 -6 33 -13 46 l-13 23 -27 -21 c-15 -12 -27
-26 -27 -31 0 -15 81 -49 118 -49 17 0 32 5 32 10 0 13 33 13 47 -1 7 -7 17
-7 29 -1 11 6 27 13 37 16 18 6 25 56 8 56 -5 0 -7 -8 -4 -19 6 -22 -5 -30
-44 -35 -38 -4 -73 10 -73 29 0 18 46 38 72 32 10 -3 18 -1 18 4 0 5 -18 9
-39 9 -47 0 -58 13 -38 43 18 29 13 88 -9 104 -28 20 -81 16 -94 -6z m85 -32
c10 -15 -1 -22 -35 -22 -34 0 -45 7 -35 22 8 14 62 14 70 0z m-35 -40 c12 -8
9 -9 -10 -4 -20 5 -22 4 -8 -5 11 -7 25 -7 42 0 31 11 33 1 7 -31 -16 -21 -22
-22 -45 -11 -24 11 -35 40 -19 55 9 9 15 9 33 -4z m14 -77 c2 -4 -4 -8 -14 -8
-10 0 -16 4 -14 8 3 4 9 8 14 8 5 0 11 -4 14 -8z m36 -2 c0 -5 -5 -10 -11 -10
-5 0 -7 5 -4 10 3 6 8 10 11 10 2 0 4 -4 4 -10z m-130 -40 c0 -5 -4 -10 -10
-10 -5 0 -10 5 -10 10 0 6 5 10 10 10 6 0 10 -4 10 -10z m109 -17 c0 -25 -1
-26 -9 -8 -12 27 -12 35 0 35 6 0 10 -12 9 -27z"/>
<path d="M120 170 c0 -5 5 -10 10 -10 6 0 10 5 10 10 0 6 -4 10 -10 10 -5 0
-10 -4 -10 -10z"/>
<path d="M225 30 l-60 -7 63 -1 c36 -1 62 2 62 8 0 6 -1 9 -2 8 -2 -1 -30 -4
-63 -8z"/>
</g>
</svg>
